<?xml version="1.0" encoding="UTF-8" standalone="no"?>
<!DOCTYPE svg PUBLIC "-//W3C//DTD SVG 1.1//EN"
 "http://www.w3.org/Graphics/SVG/1.1/DTD/svg11.dtd">
<!-- Generated by graphviz version 2.40.1 (20161225.0304)
 -->
<!-- Title: Tree Pages: 1 -->
<svg width="869pt" height="790pt"
 viewBox="0.00 0.00 868.50 790.00" xmlns="http://www.w3.org/2000/svg" xmlns:xlink="http://www.w3.org/1999/xlink">
<g id="graph0" class="graph" transform="scale(1 1) rotate(0) translate(4 786)">
<title>Tree</title>
<polygon fill="#ffffff" stroke="transparent" points="-4,4 -4,-786 864.5,-786 864.5,4 -4,4"/>
<!-- 0 -->
<g id="node1" class="node">
<title>0</title>
<path fill="#fffefd" stroke="#000000" d="M329,-782C329,-782 191,-782 191,-782 185,-782 179,-776 179,-770 179,-770 179,-711 179,-711 179,-705 185,-699 191,-699 191,-699 329,-699 329,-699 335,-699 341,-705 341,-711 341,-711 341,-770 341,-770 341,-776 335,-782 329,-782"/>
<text text-anchor="middle" x="260" y="-766.8" font-family="Helvetica,sans-Serif" font-size="14.00" fill="#000000">petal width (cm) &lt;= 0.8</text>
<text text-anchor="middle" x="260" y="-751.8" font-family="Helvetica,sans-Serif" font-size="14.00" fill="#000000">gini = 0.667</text>
<text text-anchor="middle" x="260" y="-736.8" font-family="Helvetica,sans-Serif" font-size="14.00" fill="#000000">samples = 135</text>
<text text-anchor="middle" x="260" y="-721.8" font-family="Helvetica,sans-Serif" font-size="14.00" fill="#000000">value = [46, 45, 44]</text>
<text text-anchor="middle" x="260" y="-706.8" font-family="Helvetica,sans-Serif" font-size="14.00" fill="#000000">class = Iris&#45;setosa</text>
</g>
<!-- 1 -->
<g id="node2" class="node">
<title>1</title>
<path fill="#e58139" stroke="#000000" d="M228.5,-655.5C228.5,-655.5 119.5,-655.5 119.5,-655.5 113.5,-655.5 107.5,-649.5 107.5,-643.5 107.5,-643.5 107.5,-599.5 107.5,-599.5 107.5,-593.5 113.5,-587.5 119.5,-587.5 119.5,-587.5 228.5,-587.5 228.5,-587.5 234.5,-587.5 240.5,-593.5 240.5,-599.5 240.5,-599.5 240.5,-643.5 240.5,-643.5 240.5,-649.5 234.5,-655.5 228.5,-655.5"/>
<text text-anchor="middle" x="174" y="-640.3" font-family="Helvetica,sans-Serif" font-size="14.00" fill="#000000">gini = 0.0</text>
<text text-anchor="middle" x="174" y="-625.3" font-family="Helvetica,sans-Serif" font-size="14.00" fill="#000000">samples = 46</text>
<text text-anchor="middle" x="174" y="-610.3" font-family="Helvetica,sans-Serif" font-size="14.00" fill="#000000">value = [46, 0, 0]</text>
<text text-anchor="middle" x="174" y="-595.3" font-family="Helvetica,sans-Serif" font-size="14.00" fill="#000000">class = Iris&#45;setosa</text>
</g>
<!-- 0&#45;&gt;1 -->
<g id="edge1" class="edge">
<title>0&#45;&gt;1</title>
<path fill="none" stroke="#000000" d="M229.9214,-698.8796C221.8157,-687.6636 213.0347,-675.5131 204.8857,-664.2372"/>
<polygon fill="#000000" stroke="#000000" points="207.4932,-661.8698 198.799,-655.8149 201.8197,-665.9701 207.4932,-661.8698"/>
<text text-anchor="middle" x="194.8258" y="-676.7972" font-family="Helvetica,sans-Serif" font-size="14.00" fill="#000000">True</text>
</g>
<!-- 2 -->
<g id="node3" class="node">
<title>2</title>
<path fill="#fbfefc" stroke="#000000" d="M423,-663C423,-663 271,-663 271,-663 265,-663 259,-657 259,-651 259,-651 259,-592 259,-592 259,-586 265,-580 271,-580 271,-580 423,-580 423,-580 429,-580 435,-586 435,-592 435,-592 435,-651 435,-651 435,-657 429,-663 423,-663"/>
<text text-anchor="middle" x="347" y="-647.8" font-family="Helvetica,sans-Serif" font-size="14.00" fill="#000000">petal length (cm) &lt;= 4.85</text>
<text text-anchor="middle" x="347" y="-632.8" font-family="Helvetica,sans-Serif" font-size="14.00" fill="#000000">gini = 0.5</text>
<text text-anchor="middle" x="347" y="-617.8" font-family="Helvetica,sans-Serif" font-size="14.00" fill="#000000">samples = 89</text>
<text text-anchor="middle" x="347" y="-602.8" font-family="Helvetica,sans-Serif" font-size="14.00" fill="#000000">value = [0, 45, 44]</text>
<text text-anchor="middle" x="347" y="-587.8" font-family="Helvetica,sans-Serif" font-size="14.00" fill="#000000">class = Iris&#45;versicolor</text>
</g>
<!-- 0&#45;&gt;2 -->
<g id="edge2" class="edge">
<title>0&#45;&gt;2</title>
<path fill="none" stroke="#000000" d="M290.4284,-698.8796C296.8811,-690.0534 303.757,-680.6485 310.4113,-671.5466"/>
<polygon fill="#000000" stroke="#000000" points="313.3653,-673.4364 316.4417,-663.2981 307.7144,-669.3051 313.3653,-673.4364"/>
<text text-anchor="middle" x="320.2792" y="-684.3018" font-family="Helvetica,sans-Serif" font-size="14.00" fill="#000000">False</text>
</g>
<!-- 3 -->
<g id="node4" class="node">
<title>3</title>
<path fill="#42e687" stroke="#000000" d="M326,-544C326,-544 180,-544 180,-544 174,-544 168,-538 168,-532 168,-532 168,-473 168,-473 168,-467 174,-461 180,-461 180,-461 326,-461 326,-461 332,-461 338,-467 338,-473 338,-473 338,-532 338,-532 338,-538 332,-544 326,-544"/>
<text text-anchor="middle" x="253" y="-528.8" font-family="Helvetica,sans-Serif" font-size="14.00" fill="#000000">petal width (cm) &lt;= 1.65</text>
<text text-anchor="middle" x="253" y="-513.8" font-family="Helvetica,sans-Serif" font-size="14.00" fill="#000000">gini = 0.087</text>
<text text-anchor="middle" x="253" y="-498.8" font-family="Helvetica,sans-Serif" font-size="14.00" fill="#000000">samples = 44</text>
<text text-anchor="middle" x="253" y="-483.8" font-family="Helvetica,sans-Serif" font-size="14.00" fill="#000000">value = [0, 42, 2]</text>
<text text-anchor="middle" x="253" y="-468.8" font-family="Helvetica,sans-Serif" font-size="14.00" fill="#000000">class = Iris&#45;versicolor</text>
</g>
<!-- 2&#45;&gt;3 -->
<g id="edge3" class="edge">
<title>2&#45;&gt;3</title>
<path fill="none" stroke="#000000" d="M314.1234,-579.8796C307.0803,-570.9633 299.5707,-561.4565 292.3126,-552.268"/>
<polygon fill="#000000" stroke="#000000" points="294.9621,-549.9757 286.017,-544.2981 289.4691,-554.3147 294.9621,-549.9757"/>
</g>
<!-- 8 -->
<g id="node9" class="node">
<title>8</title>
<path fill="#8a47e7" stroke="#000000" d="M514,-544C514,-544 368,-544 368,-544 362,-544 356,-538 356,-532 356,-532 356,-473 356,-473 356,-467 362,-461 368,-461 368,-461 514,-461 514,-461 520,-461 526,-467 526,-473 526,-473 526,-532 526,-532 526,-538 520,-544 514,-544"/>
<text text-anchor="middle" x="441" y="-528.8" font-family="Helvetica,sans-Serif" font-size="14.00" fill="#000000">petal width (cm) &lt;= 1.75</text>
<text text-anchor="middle" x="441" y="-513.8" font-family="Helvetica,sans-Serif" font-size="14.00" fill="#000000">gini = 0.124</text>
<text text-anchor="middle" x="441" y="-498.8" font-family="Helvetica,sans-Serif" font-size="14.00" fill="#000000">samples = 45</text>
<text text-anchor="middle" x="441" y="-483.8" font-family="Helvetica,sans-Serif" font-size="14.00" fill="#000000">value = [0, 3, 42]</text>
<text text-anchor="middle" x="441" y="-468.8" font-family="Helvetica,sans-Serif" font-size="14.00" fill="#000000">class = Iris&#45;virginica</text>
</g>
<!-- 2&#45;&gt;8 -->
<g id="edge8" class="edge">
<title>2&#45;&gt;8</title>
<path fill="none" stroke="#000000" d="M379.8766,-579.8796C386.9197,-570.9633 394.4293,-561.4565 401.6874,-552.268"/>
<polygon fill="#000000" stroke="#000000" points="404.5309,-554.3147 407.983,-544.2981 399.0379,-549.9757 404.5309,-554.3147"/>
</g>
<!-- 4 -->
<g id="node5" class="node">
<title>4</title>
<path fill="#39e581" stroke="#000000" d="M140,-417.5C140,-417.5 12,-417.5 12,-417.5 6,-417.5 0,-411.5 0,-405.5 0,-405.5 0,-361.5 0,-361.5 0,-355.5 6,-349.5 12,-349.5 12,-349.5 140,-349.5 140,-349.5 146,-349.5 152,-355.5 152,-361.5 152,-361.5 152,-405.5 152,-405.5 152,-411.5 146,-417.5 140,-417.5"/>
<text text-anchor="middle" x="76" y="-402.3" font-family="Helvetica,sans-Serif" font-size="14.00" fill="#000000">gini = 0.0</text>
<text text-anchor="middle" x="76" y="-387.3" font-family="Helvetica,sans-Serif" font-size="14.00" fill="#000000">samples = 41</text>
<text text-anchor="middle" x="76" y="-372.3" font-family="Helvetica,sans-Serif" font-size="14.00" fill="#000000">value = [0, 41, 0]</text>
<text text-anchor="middle" x="76" y="-357.3" font-family="Helvetica,sans-Serif" font-size="14.00" fill="#000000">class = Iris&#45;versicolor</text>
</g>
<!-- 3&#45;&gt;4 -->
<g id="edge4" class="edge">
<title>3&#45;&gt;4</title>
<path fill="none" stroke="#000000" d="M191.094,-460.8796C173.0172,-448.7263 153.3086,-435.4759 135.3913,-423.4297"/>
<polygon fill="#000000" stroke="#000000" points="137.0061,-420.2979 126.7544,-417.623 133.1004,-426.1071 137.0061,-420.2979"/>
</g>
<!-- 5 -->
<g id="node6" class="node">
<title>5</title>
<path fill="#c09cf2" stroke="#000000" d="M324,-425C324,-425 182,-425 182,-425 176,-425 170,-419 170,-413 170,-413 170,-354 170,-354 170,-348 176,-342 182,-342 182,-342 324,-342 324,-342 330,-342 336,-348 336,-354 336,-354 336,-413 336,-413 336,-419 330,-425 324,-425"/>
<text text-anchor="middle" x="253" y="-409.8" font-family="Helvetica,sans-Serif" font-size="14.00" fill="#000000">sepal width (cm) &lt;= 3.0</text>
<text text-anchor="middle" x="253" y="-394.8" font-family="Helvetica,sans-Serif" font-size="14.00" fill="#000000">gini = 0.444</text>
<text text-anchor="middle" x="253" y="-379.8" font-family="Helvetica,sans-Serif" font-size="14.00" fill="#000000">samples = 3</text>
<text text-anchor="middle" x="253" y="-364.8" font-family="Helvetica,sans-Serif" font-size="14.00" fill="#000000">value = [0, 1, 2]</text>
<text text-anchor="middle" x="253" y="-349.8" font-family="Helvetica,sans-Serif" font-size="14.00" fill="#000000">class = Iris&#45;virginica</text>
</g>
<!-- 3&#45;&gt;5 -->
<g id="edge5" class="edge">
<title>3&#45;&gt;5</title>
<path fill="none" stroke="#000000" d="M253,-460.8796C253,-452.6838 253,-443.9891 253,-435.5013"/>
<polygon fill="#000000" stroke="#000000" points="256.5001,-435.298 253,-425.2981 249.5001,-435.2981 256.5001,-435.298"/>
</g>
<!-- 6 -->
<g id="node7" class="node">
<title>6</title>
<path fill="#8139e5" stroke="#000000" d="M152.5,-298.5C152.5,-298.5 33.5,-298.5 33.5,-298.5 27.5,-298.5 21.5,-292.5 21.5,-286.5 21.5,-286.5 21.5,-242.5 21.5,-242.5 21.5,-236.5 27.5,-230.5 33.5,-230.5 33.5,-230.5 152.5,-230.5 152.5,-230.5 158.5,-230.5 164.5,-236.5 164.5,-242.5 164.5,-242.5 164.5,-286.5 164.5,-286.5 164.5,-292.5 158.5,-298.5 152.5,-298.5"/>
<text text-anchor="middle" x="93" y="-283.3" font-family="Helvetica,sans-Serif" font-size="14.00" fill="#000000">gini = 0.0</text>
<text text-anchor="middle" x="93" y="-268.3" font-family="Helvetica,sans-Serif" font-size="14.00" fill="#000000">samples = 2</text>
<text text-anchor="middle" x="93" y="-253.3" font-family="Helvetica,sans-Serif" font-size="14.00" fill="#000000">value = [0, 0, 2]</text>
<text text-anchor="middle" x="93" y="-238.3" font-family="Helvetica,sans-Serif" font-size="14.00" fill="#000000">class = Iris&#45;virginica</text>
</g>
<!-- 5&#45;&gt;6 -->
<g id="edge6" class="edge">
<title>5&#45;&gt;6</title>
<path fill="none" stroke="#000000" d="M197.0398,-341.8796C180.8478,-329.8368 163.2073,-316.7167 147.1292,-304.7586"/>
<polygon fill="#000000" stroke="#000000" points="148.9925,-301.7825 138.8797,-298.623 144.815,-307.3993 148.9925,-301.7825"/>
</g>
<!-- 7 -->
<g id="node8" class="node">
<title>7</title>
<path fill="#39e581" stroke="#000000" d="M323,-298.5C323,-298.5 195,-298.5 195,-298.5 189,-298.5 183,-292.5 183,-286.5 183,-286.5 183,-242.5 183,-242.5 183,-236.5 189,-230.5 195,-230.5 195,-230.5 323,-230.5 323,-230.5 329,-230.5 335,-236.5 335,-242.5 335,-242.5 335,-286.5 335,-286.5 335,-292.5 329,-298.5 323,-298.5"/>
<text text-anchor="middle" x="259" y="-283.3" font-family="Helvetica,sans-Serif" font-size="14.00" fill="#000000">gini = 0.0</text>
<text text-anchor="middle" x="259" y="-268.3" font-family="Helvetica,sans-Serif" font-size="14.00" fill="#000000">samples = 1</text>
<text text-anchor="middle" x="259" y="-253.3" font-family="Helvetica,sans-Serif" font-size="14.00" fill="#000000">value = [0, 1, 0]</text>
<text text-anchor="middle" x="259" y="-238.3" font-family="Helvetica,sans-Serif" font-size="14.00" fill="#000000">class = Iris&#45;versicolor</text>
</g>
<!-- 5&#45;&gt;7 -->
<g id="edge7" class="edge">
<title>5&#45;&gt;7</title>
<path fill="none" stroke="#000000" d="M255.0985,-341.8796C255.6363,-331.2134 256.2167,-319.7021 256.7613,-308.9015"/>
<polygon fill="#000000" stroke="#000000" points="260.2617,-308.9785 257.2698,-298.8149 253.2706,-308.626 260.2617,-308.9785"/>
</g>
<!-- 9 -->
<g id="node10" class="node">
<title>9</title>
<path fill="#e0cef8" stroke="#000000" d="M516,-425C516,-425 366,-425 366,-425 360,-425 354,-419 354,-413 354,-413 354,-354 354,-354 354,-348 360,-342 366,-342 366,-342 516,-342 516,-342 522,-342 528,-348 528,-354 528,-354 528,-413 528,-413 528,-419 522,-425 516,-425"/>
<text text-anchor="middle" x="441" y="-409.8" font-family="Helvetica,sans-Serif" font-size="14.00" fill="#000000">sepal width (cm) &lt;= 2.65</text>
<text text-anchor="middle" x="441" y="-394.8" font-family="Helvetica,sans-Serif" font-size="14.00" fill="#000000">gini = 0.49</text>
<text text-anchor="middle" x="441" y="-379.8" font-family="Helvetica,sans-Serif" font-size="14.00" fill="#000000">samples = 7</text>
<text text-anchor="middle" x="441" y="-364.8" font-family="Helvetica,sans-Serif" font-size="14.00" fill="#000000">value = [0, 3, 4]</text>
<text text-anchor="middle" x="441" y="-349.8" font-family="Helvetica,sans-Serif" font-size="14.00" fill="#000000">class = Iris&#45;virginica</text>
</g>
<!-- 8&#45;&gt;9 -->
<g id="edge9" class="edge">
<title>8&#45;&gt;9</title>
<path fill="none" stroke="#000000" d="M441,-460.8796C441,-452.6838 441,-443.9891 441,-435.5013"/>
<polygon fill="#000000" stroke="#000000" points="444.5001,-435.298 441,-425.2981 437.5001,-435.2981 444.5001,-435.298"/>
</g>
<!-- 16 -->
<g id="node17" class="node">
<title>16</title>
<path fill="#8139e5" stroke="#000000" d="M677.5,-417.5C677.5,-417.5 558.5,-417.5 558.5,-417.5 552.5,-417.5 546.5,-411.5 546.5,-405.5 546.5,-405.5 546.5,-361.5 546.5,-361.5 546.5,-355.5 552.5,-349.5 558.5,-349.5 558.5,-349.5 677.5,-349.5 677.5,-349.5 683.5,-349.5 689.5,-355.5 689.5,-361.5 689.5,-361.5 689.5,-405.5 689.5,-405.5 689.5,-411.5 683.5,-417.5 677.5,-417.5"/>
<text text-anchor="middle" x="618" y="-402.3" font-family="Helvetica,sans-Serif" font-size="14.00" fill="#000000">gini = 0.0</text>
<text text-anchor="middle" x="618" y="-387.3" font-family="Helvetica,sans-Serif" font-size="14.00" fill="#000000">samples = 38</text>
<text text-anchor="middle" x="618" y="-372.3" font-family="Helvetica,sans-Serif" font-size="14.00" fill="#000000">value = [0, 0, 38]</text>
<text text-anchor="middle" x="618" y="-357.3" font-family="Helvetica,sans-Serif" font-size="14.00" fill="#000000">class = Iris&#45;virginica</text>
</g>
<!-- 8&#45;&gt;16 -->
<g id="edge16" class="edge">
<title>8&#45;&gt;16</title>
<path fill="none" stroke="#000000" d="M502.906,-460.8796C520.9828,-448.7263 540.6914,-435.4759 558.6087,-423.4297"/>
<polygon fill="#000000" stroke="#000000" points="560.8996,-426.1071 567.2456,-417.623 556.9939,-420.2979 560.8996,-426.1071"/>
</g>
<!-- 10 -->
<g id="node11" class="node">
<title>10</title>
<path fill="#8139e5" stroke="#000000" d="M495.5,-298.5C495.5,-298.5 376.5,-298.5 376.5,-298.5 370.5,-298.5 364.5,-292.5 364.5,-286.5 364.5,-286.5 364.5,-242.5 364.5,-242.5 364.5,-236.5 370.5,-230.5 376.5,-230.5 376.5,-230.5 495.5,-230.5 495.5,-230.5 501.5,-230.5 507.5,-236.5 507.5,-242.5 507.5,-242.5 507.5,-286.5 507.5,-286.5 507.5,-292.5 501.5,-298.5 495.5,-298.5"/>
<text text-anchor="middle" x="436" y="-283.3" font-family="Helvetica,sans-Serif" font-size="14.00" fill="#000000">gini = 0.0</text>
<text text-anchor="middle" x="436" y="-268.3" font-family="Helvetica,sans-Serif" font-size="14.00" fill="#000000">samples = 2</text>
<text text-anchor="middle" x="436" y="-253.3" font-family="Helvetica,sans-Serif" font-size="14.00" fill="#000000">value = [0, 0, 2]</text>
<text text-anchor="middle" x="436" y="-238.3" font-family="Helvetica,sans-Serif" font-size="14.00" fill="#000000">class = Iris&#45;virginica</text>
</g>
<!-- 9&#45;&gt;10 -->
<g id="edge10" class="edge">
<title>9&#45;&gt;10</title>
<path fill="none" stroke="#000000" d="M439.2512,-341.8796C438.8031,-331.2134 438.3194,-319.7021 437.8656,-308.9015"/>
<polygon fill="#000000" stroke="#000000" points="441.3586,-308.6592 437.4418,-298.8149 434.3648,-308.9531 441.3586,-308.6592"/>
</g>
<!-- 11 -->
<g id="node12" class="node">
<title>11</title>
<path fill="#bdf6d5" stroke="#000000" d="M690,-306C690,-306 538,-306 538,-306 532,-306 526,-300 526,-294 526,-294 526,-235 526,-235 526,-229 532,-223 538,-223 538,-223 690,-223 690,-223 696,-223 702,-229 702,-235 702,-235 702,-294 702,-294 702,-300 696,-306 690,-306"/>
<text text-anchor="middle" x="614" y="-290.8" font-family="Helvetica,sans-Serif" font-size="14.00" fill="#000000">petal length (cm) &lt;= 5.05</text>
<text text-anchor="middle" x="614" y="-275.8" font-family="Helvetica,sans-Serif" font-size="14.00" fill="#000000">gini = 0.48</text>
<text text-anchor="middle" x="614" y="-260.8" font-family="Helvetica,sans-Serif" font-size="14.00" fill="#000000">samples = 5</text>
<text text-anchor="middle" x="614" y="-245.8" font-family="Helvetica,sans-Serif" font-size="14.00" fill="#000000">value = [0, 3, 2]</text>
<text text-anchor="middle" x="614" y="-230.8" font-family="Helvetica,sans-Serif" font-size="14.00" fill="#000000">class = Iris&#45;versicolor</text>
</g>
<!-- 9&#45;&gt;11 -->
<g id="edge11" class="edge">
<title>9&#45;&gt;11</title>
<path fill="none" stroke="#000000" d="M501.507,-341.8796C515.5982,-332.1868 530.7039,-321.7961 545.1269,-311.8752"/>
<polygon fill="#000000" stroke="#000000" points="547.2717,-314.6479 553.5272,-306.0969 543.3045,-308.8806 547.2717,-314.6479"/>
</g>
<!-- 12 -->
<g id="node13" class="node">
<title>12</title>
<path fill="#39e581" stroke="#000000" d="M586,-179.5C586,-179.5 458,-179.5 458,-179.5 452,-179.5 446,-173.5 446,-167.5 446,-167.5 446,-123.5 446,-123.5 446,-117.5 452,-111.5 458,-111.5 458,-111.5 586,-111.5 586,-111.5 592,-111.5 598,-117.5 598,-123.5 598,-123.5 598,-167.5 598,-167.5 598,-173.5 592,-179.5 586,-179.5"/>
<text text-anchor="middle" x="522" y="-164.3" font-family="Helvetica,sans-Serif" font-size="14.00" fill="#000000">gini = 0.0</text>
<text text-anchor="middle" x="522" y="-149.3" font-family="Helvetica,sans-Serif" font-size="14.00" fill="#000000">samples = 2</text>
<text text-anchor="middle" x="522" y="-134.3" font-family="Helvetica,sans-Serif" font-size="14.00" fill="#000000">value = [0, 2, 0]</text>
<text text-anchor="middle" x="522" y="-119.3" font-family="Helvetica,sans-Serif" font-size="14.00" fill="#000000">class = Iris&#45;versicolor</text>
</g>
<!-- 11&#45;&gt;12 -->
<g id="edge12" class="edge">
<title>11&#45;&gt;12</title>
<path fill="none" stroke="#000000" d="M581.8229,-222.8796C573.0667,-211.5536 563.5738,-199.2748 554.7844,-187.9058"/>
<polygon fill="#000000" stroke="#000000" points="557.4146,-185.5856 548.5292,-179.8149 551.8766,-189.8671 557.4146,-185.5856"/>
</g>
<!-- 13 -->
<g id="node14" class="node">
<title>13</title>
<path fill="#c09cf2" stroke="#000000" d="M784,-187C784,-187 628,-187 628,-187 622,-187 616,-181 616,-175 616,-175 616,-116 616,-116 616,-110 622,-104 628,-104 628,-104 784,-104 784,-104 790,-104 796,-110 796,-116 796,-116 796,-175 796,-175 796,-181 790,-187 784,-187"/>
<text text-anchor="middle" x="706" y="-171.8" font-family="Helvetica,sans-Serif" font-size="14.00" fill="#000000">sepal length (cm) &lt;= 6.15</text>
<text text-anchor="middle" x="706" y="-156.8" font-family="Helvetica,sans-Serif" font-size="14.00" fill="#000000">gini = 0.444</text>
<text text-anchor="middle" x="706" y="-141.8" font-family="Helvetica,sans-Serif" font-size="14.00" fill="#000000">samples = 3</text>
<text text-anchor="middle" x="706" y="-126.8" font-family="Helvetica,sans-Serif" font-size="14.00" fill="#000000">value = [0, 1, 2]</text>
<text text-anchor="middle" x="706" y="-111.8" font-family="Helvetica,sans-Serif" font-size="14.00" fill="#000000">class = Iris&#45;virginica</text>
</g>
<!-- 11&#45;&gt;13 -->
<g id="edge13" class="edge">
<title>11&#45;&gt;13</title>
<path fill="none" stroke="#000000" d="M646.1771,-222.8796C653.0704,-213.9633 660.4202,-204.4565 667.5239,-195.268"/>
<polygon fill="#000000" stroke="#000000" points="670.3381,-197.3502 673.6855,-187.2981 664.8001,-193.0687 670.3381,-197.3502"/>
</g>
<!-- 14 -->
<g id="node15" class="node">
<title>14</title>
<path fill="#39e581" stroke="#000000" d="M687,-68C687,-68 559,-68 559,-68 553,-68 547,-62 547,-56 547,-56 547,-12 547,-12 547,-6 553,0 559,0 559,0 687,0 687,0 693,0 699,-6 699,-12 699,-12 699,-56 699,-56 699,-62 693,-68 687,-68"/>
<text text-anchor="middle" x="623" y="-52.8" font-family="Helvetica,sans-Serif" font-size="14.00" fill="#000000">gini = 0.0</text>
<text text-anchor="middle" x="623" y="-37.8" font-family="Helvetica,sans-Serif" font-size="14.00" fill="#000000">samples = 1</text>
<text text-anchor="middle" x="623" y="-22.8" font-family="Helvetica,sans-Serif" font-size="14.00" fill="#000000">value = [0, 1, 0]</text>
<text text-anchor="middle" x="623" y="-7.8" font-family="Helvetica,sans-Serif" font-size="14.00" fill="#000000">class = Iris&#45;versicolor</text>
</g>
<!-- 13&#45;&gt;14 -->
<g id="edge14" class="edge">
<title>13&#45;&gt;14</title>
<path fill="none" stroke="#000000" d="M675.0939,-103.9815C668.3892,-94.9747 661.2892,-85.4367 654.5597,-76.3965"/>
<polygon fill="#000000" stroke="#000000" points="657.2845,-74.1953 648.5057,-68.2637 651.6694,-78.3752 657.2845,-74.1953"/>
</g>
<!-- 15 -->
<g id="node16" class="node">
<title>15</title>
<path fill="#8139e5" stroke="#000000" d="M848.5,-68C848.5,-68 729.5,-68 729.5,-68 723.5,-68 717.5,-62 717.5,-56 717.5,-56 717.5,-12 717.5,-12 717.5,-6 723.5,0 729.5,0 729.5,0 848.5,0 848.5,0 854.5,0 860.5,-6 860.5,-12 860.5,-12 860.5,-56 860.5,-56 860.5,-62 854.5,-68 848.5,-68"/>
<text text-anchor="middle" x="789" y="-52.8" font-family="Helvetica,sans-Serif" font-size="14.00" fill="#000000">gini = 0.0</text>
<text text-anchor="middle" x="789" y="-37.8" font-family="Helvetica,sans-Serif" font-size="14.00" fill="#000000">samples = 2</text>
<text text-anchor="middle" x="789" y="-22.8" font-family="Helvetica,sans-Serif" font-size="14.00" fill="#000000">value = [0, 0, 2]</text>
<text text-anchor="middle" x="789" y="-7.8" font-family="Helvetica,sans-Serif" font-size="14.00" fill="#000000">class = Iris&#45;virginica</text>
</g>
<!-- 13&#45;&gt;15 -->
<g id="edge15" class="edge">
<title>13&#45;&gt;15</title>
<path fill="none" stroke="#000000" d="M736.9061,-103.9815C743.6108,-94.9747 750.7108,-85.4367 757.4403,-76.3965"/>
<polygon fill="#000000" stroke="#000000" points="760.3306,-78.3752 763.4943,-68.2637 754.7155,-74.1953 760.3306,-78.3752"/>
</g>
</g>
</svg>
