<?xml version="1.0" encoding="UTF-8" standalone="no"?>
<!DOCTYPE svg PUBLIC "-//W3C//DTD SVG 1.1//EN"
 "http://www.w3.org/Graphics/SVG/1.1/DTD/svg11.dtd">
<!-- Generated by graphviz version 2.40.1 (20161225.0304)
 -->
<!-- Title: Tree Pages: 1 -->
<svg width="700pt" height="790pt"
 viewBox="0.00 0.00 699.50 790.00" xmlns="http://www.w3.org/2000/svg" xmlns:xlink="http://www.w3.org/1999/xlink">
<g id="graph0" class="graph" transform="scale(1 1) rotate(0) translate(4 786)">
<title>Tree</title>
<polygon fill="#ffffff" stroke="transparent" points="-4,4 -4,-786 695.5,-786 695.5,4 -4,4"/>
<!-- 0 -->
<g id="node1" class="node">
<title>0</title>
<path fill="#fffefd" stroke="#000000" d="M329,-782C329,-782 191,-782 191,-782 185,-782 179,-776 179,-770 179,-770 179,-711 179,-711 179,-705 185,-699 191,-699 191,-699 329,-699 329,-699 335,-699 341,-705 341,-711 341,-711 341,-770 341,-770 341,-776 335,-782 329,-782"/>
<text text-anchor="middle" x="260" y="-766.8" font-family="Helvetica,sans-Serif" font-size="14.00" fill="#000000">petal width (cm) &lt;= 0.8</text>
<text text-anchor="middle" x="260" y="-751.8" font-family="Helvetica,sans-Serif" font-size="14.00" fill="#000000">gini = 0.667</text>
<text text-anchor="middle" x="260" y="-736.8" font-family="Helvetica,sans-Serif" font-size="14.00" fill="#000000">samples = 135</text>
<text text-anchor="middle" x="260" y="-721.8" font-family="Helvetica,sans-Serif" font-size="14.00" fill="#000000">value = [46, 45, 44]</text>
<text text-anchor="middle" x="260" y="-706.8" font-family="Helvetica,sans-Serif" font-size="14.00" fill="#000000">class = Iris&#45;setosa</text>
</g>
<!-- 1 -->
<g id="node2" class="node">
<title>1</title>
<path fill="#e58139" stroke="#000000" d="M228.5,-655.5C228.5,-655.5 119.5,-655.5 119.5,-655.5 113.5,-655.5 107.5,-649.5 107.5,-643.5 107.5,-643.5 107.5,-599.5 107.5,-599.5 107.5,-593.5 113.5,-587.5 119.5,-587.5 119.5,-587.5 228.5,-587.5 228.5,-587.5 234.5,-587.5 240.5,-593.5 240.5,-599.5 240.5,-599.5 240.5,-643.5 240.5,-643.5 240.5,-649.5 234.5,-655.5 228.5,-655.5"/>
<text text-anchor="middle" x="174" y="-640.3" font-family="Helvetica,sans-Serif" font-size="14.00" fill="#000000">gini = 0.0</text>
<text text-anchor="middle" x="174" y="-625.3" font-family="Helvetica,sans-Serif" font-size="14.00" fill="#000000">samples = 46</text>
<text text-anchor="middle" x="174" y="-610.3" font-family="Helvetica,sans-Serif" font-size="14.00" fill="#000000">value = [46, 0, 0]</text>
<text text-anchor="middle" x="174" y="-595.3" font-family="Helvetica,sans-Serif" font-size="14.00" fill="#000000">class = Iris&#45;setosa</text>
</g>
<!-- 0&#45;&gt;1 -->
<g id="edge1" class="edge">
<title>0&#45;&gt;1</title>
<path fill="none" stroke="#000000" d="M229.9214,-698.8796C221.8157,-687.6636 213.0347,-675.5131 204.8857,-664.2372"/>
<polygon fill="#000000" stroke="#000000" points="207.4932,-661.8698 198.799,-655.8149 201.8197,-665.9701 207.4932,-661.8698"/>
<text text-anchor="middle" x="194.8258" y="-676.7972" font-family="Helvetica,sans-Serif" font-size="14.00" fill="#000000">True</text>
</g>
<!-- 2 -->
<g id="node3" class="node">
<title>2</title>
<path fill="#fbfefc" stroke="#000000" d="M423,-663C423,-663 271,-663 271,-663 265,-663 259,-657 259,-651 259,-651 259,-592 259,-592 259,-586 265,-580 271,-580 271,-580 423,-580 423,-580 429,-580 435,-586 435,-592 435,-592 435,-651 435,-651 435,-657 429,-663 423,-663"/>
<text text-anchor="middle" x="347" y="-647.8" font-family="Helvetica,sans-Serif" font-size="14.00" fill="#000000">petal length (cm) &lt;= 4.85</text>
<text text-anchor="middle" x="347" y="-632.8" font-family="Helvetica,sans-Serif" font-size="14.00" fill="#000000">gini = 0.5</text>
<text text-anchor="middle" x="347" y="-617.8" font-family="Helvetica,sans-Serif" font-size="14.00" fill="#000000">samples = 89</text>
<text text-anchor="middle" x="347" y="-602.8" font-family="Helvetica,sans-Serif" font-size="14.00" fill="#000000">value = [0, 45, 44]</text>
<text text-anchor="middle" x="347" y="-587.8" font-family="Helvetica,sans-Serif" font-size="14.00" fill="#000000">class = Iris&#45;versicolor</text>
</g>
<!-- 0&#45;&gt;2 -->
<g id="edge2" class="edge">
<title>0&#45;&gt;2</title>
<path fill="none" stroke="#000000" d="M290.4284,-698.8796C296.8811,-690.0534 303.757,-680.6485 310.4113,-671.5466"/>
<polygon fill="#000000" stroke="#000000" points="313.3653,-673.4364 316.4417,-663.2981 307.7144,-669.3051 313.3653,-673.4364"/>
<text text-anchor="middle" x="320.2792" y="-684.3018" font-family="Helvetica,sans-Serif" font-size="14.00" fill="#000000">False</text>
</g>
<!-- 3 -->
<g id="node4" class="node">
<title>3</title>
<path fill="#42e687" stroke="#000000" d="M326,-544C326,-544 180,-544 180,-544 174,-544 168,-538 168,-532 168,-532 168,-473 168,-473 168,-467 174,-461 180,-461 180,-461 326,-461 326,-461 332,-461 338,-467 338,-473 338,-473 338,-532 338,-532 338,-538 332,-544 326,-544"/>
<text text-anchor="middle" x="253" y="-528.8" font-family="Helvetica,sans-Serif" font-size="14.00" fill="#000000">petal width (cm) &lt;= 1.65</text>
<text text-anchor="middle" x="253" y="-513.8" font-family="Helvetica,sans-Serif" font-size="14.00" fill="#000000">gini = 0.087</text>
<text text-anchor="middle" x="253" y="-498.8" font-family="Helvetica,sans-Serif" font-size="14.00" fill="#000000">samples = 44</text>
<text text-anchor="middle" x="253" y="-483.8" font-family="Helvetica,sans-Serif" font-size="14.00" fill="#000000">value = [0, 42, 2]</text>
<text text-anchor="middle" x="253" y="-468.8" font-family="Helvetica,sans-Serif" font-size="14.00" fill="#000000">class = Iris&#45;versicolor</text>
</g>
<!-- 2&#45;&gt;3 -->
<g id="edge3" class="edge">
<title>2&#45;&gt;3</title>
<path fill="none" stroke="#000000" d="M314.1234,-579.8796C307.0803,-570.9633 299.5707,-561.4565 292.3126,-552.268"/>
<polygon fill="#000000" stroke="#000000" points="294.9621,-549.9757 286.017,-544.2981 289.4691,-554.3147 294.9621,-549.9757"/>
</g>
<!-- 8 -->
<g id="node9" class="node">
<title>8</title>
<path fill="#8a47e7" stroke="#000000" d="M515,-544C515,-544 369,-544 369,-544 363,-544 357,-538 357,-532 357,-532 357,-473 357,-473 357,-467 363,-461 369,-461 369,-461 515,-461 515,-461 521,-461 527,-467 527,-473 527,-473 527,-532 527,-532 527,-538 521,-544 515,-544"/>
<text text-anchor="middle" x="442" y="-528.8" font-family="Helvetica,sans-Serif" font-size="14.00" fill="#000000">petal width (cm) &lt;= 1.75</text>
<text text-anchor="middle" x="442" y="-513.8" font-family="Helvetica,sans-Serif" font-size="14.00" fill="#000000">gini = 0.124</text>
<text text-anchor="middle" x="442" y="-498.8" font-family="Helvetica,sans-Serif" font-size="14.00" fill="#000000">samples = 45</text>
<text text-anchor="middle" x="442" y="-483.8" font-family="Helvetica,sans-Serif" font-size="14.00" fill="#000000">value = [0, 3, 42]</text>
<text text-anchor="middle" x="442" y="-468.8" font-family="Helvetica,sans-Serif" font-size="14.00" fill="#000000">class = Iris&#45;virginica</text>
</g>
<!-- 2&#45;&gt;8 -->
<g id="edge8" class="edge">
<title>2&#45;&gt;8</title>
<path fill="none" stroke="#000000" d="M380.2264,-579.8796C387.3444,-570.9633 394.9339,-561.4565 402.2692,-552.268"/>
<polygon fill="#000000" stroke="#000000" points="405.1281,-554.2968 408.6318,-544.2981 399.6575,-549.9295 405.1281,-554.2968"/>
</g>
<!-- 4 -->
<g id="node5" class="node">
<title>4</title>
<path fill="#39e581" stroke="#000000" d="M140,-417.5C140,-417.5 12,-417.5 12,-417.5 6,-417.5 0,-411.5 0,-405.5 0,-405.5 0,-361.5 0,-361.5 0,-355.5 6,-349.5 12,-349.5 12,-349.5 140,-349.5 140,-349.5 146,-349.5 152,-355.5 152,-361.5 152,-361.5 152,-405.5 152,-405.5 152,-411.5 146,-417.5 140,-417.5"/>
<text text-anchor="middle" x="76" y="-402.3" font-family="Helvetica,sans-Serif" font-size="14.00" fill="#000000">gini = 0.0</text>
<text text-anchor="middle" x="76" y="-387.3" font-family="Helvetica,sans-Serif" font-size="14.00" fill="#000000">samples = 41</text>
<text text-anchor="middle" x="76" y="-372.3" font-family="Helvetica,sans-Serif" font-size="14.00" fill="#000000">value = [0, 41, 0]</text>
<text text-anchor="middle" x="76" y="-357.3" font-family="Helvetica,sans-Serif" font-size="14.00" fill="#000000">class = Iris&#45;versicolor</text>
</g>
<!-- 3&#45;&gt;4 -->
<g id="edge4" class="edge">
<title>3&#45;&gt;4</title>
<path fill="none" stroke="#000000" d="M191.094,-460.8796C173.0172,-448.7263 153.3086,-435.4759 135.3913,-423.4297"/>
<polygon fill="#000000" stroke="#000000" points="137.0061,-420.2979 126.7544,-417.623 133.1004,-426.1071 137.0061,-420.2979"/>
</g>
<!-- 5 -->
<g id="node6" class="node">
<title>5</title>
<path fill="#c09cf2" stroke="#000000" d="M324,-425C324,-425 182,-425 182,-425 176,-425 170,-419 170,-413 170,-413 170,-354 170,-354 170,-348 176,-342 182,-342 182,-342 324,-342 324,-342 330,-342 336,-348 336,-354 336,-354 336,-413 336,-413 336,-419 330,-425 324,-425"/>
<text text-anchor="middle" x="253" y="-409.8" font-family="Helvetica,sans-Serif" font-size="14.00" fill="#000000">sepal width (cm) &lt;= 3.0</text>
<text text-anchor="middle" x="253" y="-394.8" font-family="Helvetica,sans-Serif" font-size="14.00" fill="#000000">gini = 0.444</text>
<text text-anchor="middle" x="253" y="-379.8" font-family="Helvetica,sans-Serif" font-size="14.00" fill="#000000">samples = 3</text>
<text text-anchor="middle" x="253" y="-364.8" font-family="Helvetica,sans-Serif" font-size="14.00" fill="#000000">value = [0, 1, 2]</text>
<text text-anchor="middle" x="253" y="-349.8" font-family="Helvetica,sans-Serif" font-size="14.00" fill="#000000">class = Iris&#45;virginica</text>
</g>
<!-- 3&#45;&gt;5 -->
<g id="edge5" class="edge">
<title>3&#45;&gt;5</title>
<path fill="none" stroke="#000000" d="M253,-460.8796C253,-452.6838 253,-443.9891 253,-435.5013"/>
<polygon fill="#000000" stroke="#000000" points="256.5001,-435.298 253,-425.2981 249.5001,-435.2981 256.5001,-435.298"/>
</g>
<!-- 6 -->
<g id="node7" class="node">
<title>6</title>
<path fill="#8139e5" stroke="#000000" d="M148.5,-298.5C148.5,-298.5 29.5,-298.5 29.5,-298.5 23.5,-298.5 17.5,-292.5 17.5,-286.5 17.5,-286.5 17.5,-242.5 17.5,-242.5 17.5,-236.5 23.5,-230.5 29.5,-230.5 29.5,-230.5 148.5,-230.5 148.5,-230.5 154.5,-230.5 160.5,-236.5 160.5,-242.5 160.5,-242.5 160.5,-286.5 160.5,-286.5 160.5,-292.5 154.5,-298.5 148.5,-298.5"/>
<text text-anchor="middle" x="89" y="-283.3" font-family="Helvetica,sans-Serif" font-size="14.00" fill="#000000">gini = 0.0</text>
<text text-anchor="middle" x="89" y="-268.3" font-family="Helvetica,sans-Serif" font-size="14.00" fill="#000000">samples = 2</text>
<text text-anchor="middle" x="89" y="-253.3" font-family="Helvetica,sans-Serif" font-size="14.00" fill="#000000">value = [0, 0, 2]</text>
<text text-anchor="middle" x="89" y="-238.3" font-family="Helvetica,sans-Serif" font-size="14.00" fill="#000000">class = Iris&#45;virginica</text>
</g>
<!-- 5&#45;&gt;6 -->
<g id="edge6" class="edge">
<title>5&#45;&gt;6</title>
<path fill="none" stroke="#000000" d="M195.6408,-341.8796C179.0439,-329.8368 160.9625,-316.7167 144.4824,-304.7586"/>
<polygon fill="#000000" stroke="#000000" points="146.176,-301.6632 136.0267,-298.623 142.0649,-307.3288 146.176,-301.6632"/>
</g>
<!-- 7 -->
<g id="node8" class="node">
<title>7</title>
<path fill="#39e581" stroke="#000000" d="M319,-298.5C319,-298.5 191,-298.5 191,-298.5 185,-298.5 179,-292.5 179,-286.5 179,-286.5 179,-242.5 179,-242.5 179,-236.5 185,-230.5 191,-230.5 191,-230.5 319,-230.5 319,-230.5 325,-230.5 331,-236.5 331,-242.5 331,-242.5 331,-286.5 331,-286.5 331,-292.5 325,-298.5 319,-298.5"/>
<text text-anchor="middle" x="255" y="-283.3" font-family="Helvetica,sans-Serif" font-size="14.00" fill="#000000">gini = 0.0</text>
<text text-anchor="middle" x="255" y="-268.3" font-family="Helvetica,sans-Serif" font-size="14.00" fill="#000000">samples = 1</text>
<text text-anchor="middle" x="255" y="-253.3" font-family="Helvetica,sans-Serif" font-size="14.00" fill="#000000">value = [0, 1, 0]</text>
<text text-anchor="middle" x="255" y="-238.3" font-family="Helvetica,sans-Serif" font-size="14.00" fill="#000000">class = Iris&#45;versicolor</text>
</g>
<!-- 5&#45;&gt;7 -->
<g id="edge7" class="edge">
<title>5&#45;&gt;7</title>
<path fill="none" stroke="#000000" d="M253.6995,-341.8796C253.8788,-331.2134 254.0722,-319.7021 254.2538,-308.9015"/>
<polygon fill="#000000" stroke="#000000" points="257.7546,-308.8724 254.4233,-298.8149 250.7556,-308.7547 257.7546,-308.8724"/>
</g>
<!-- 9 -->
<g id="node10" class="node">
<title>9</title>
<path fill="#e0cef8" stroke="#000000" d="M518,-425C518,-425 366,-425 366,-425 360,-425 354,-419 354,-413 354,-413 354,-354 354,-354 354,-348 360,-342 366,-342 366,-342 518,-342 518,-342 524,-342 530,-348 530,-354 530,-354 530,-413 530,-413 530,-419 524,-425 518,-425"/>
<text text-anchor="middle" x="442" y="-409.8" font-family="Helvetica,sans-Serif" font-size="14.00" fill="#000000">petal length (cm) &lt;= 5.35</text>
<text text-anchor="middle" x="442" y="-394.8" font-family="Helvetica,sans-Serif" font-size="14.00" fill="#000000">gini = 0.49</text>
<text text-anchor="middle" x="442" y="-379.8" font-family="Helvetica,sans-Serif" font-size="14.00" fill="#000000">samples = 7</text>
<text text-anchor="middle" x="442" y="-364.8" font-family="Helvetica,sans-Serif" font-size="14.00" fill="#000000">value = [0, 3, 4]</text>
<text text-anchor="middle" x="442" y="-349.8" font-family="Helvetica,sans-Serif" font-size="14.00" fill="#000000">class = Iris&#45;virginica</text>
</g>
<!-- 8&#45;&gt;9 -->
<g id="edge9" class="edge">
<title>8&#45;&gt;9</title>
<path fill="none" stroke="#000000" d="M442,-460.8796C442,-452.6838 442,-443.9891 442,-435.5013"/>
<polygon fill="#000000" stroke="#000000" points="445.5001,-435.298 442,-425.2981 438.5001,-435.2981 445.5001,-435.298"/>
</g>
<!-- 16 -->
<g id="node17" class="node">
<title>16</title>
<path fill="#8139e5" stroke="#000000" d="M679.5,-417.5C679.5,-417.5 560.5,-417.5 560.5,-417.5 554.5,-417.5 548.5,-411.5 548.5,-405.5 548.5,-405.5 548.5,-361.5 548.5,-361.5 548.5,-355.5 554.5,-349.5 560.5,-349.5 560.5,-349.5 679.5,-349.5 679.5,-349.5 685.5,-349.5 691.5,-355.5 691.5,-361.5 691.5,-361.5 691.5,-405.5 691.5,-405.5 691.5,-411.5 685.5,-417.5 679.5,-417.5"/>
<text text-anchor="middle" x="620" y="-402.3" font-family="Helvetica,sans-Serif" font-size="14.00" fill="#000000">gini = 0.0</text>
<text text-anchor="middle" x="620" y="-387.3" font-family="Helvetica,sans-Serif" font-size="14.00" fill="#000000">samples = 38</text>
<text text-anchor="middle" x="620" y="-372.3" font-family="Helvetica,sans-Serif" font-size="14.00" fill="#000000">value = [0, 0, 38]</text>
<text text-anchor="middle" x="620" y="-357.3" font-family="Helvetica,sans-Serif" font-size="14.00" fill="#000000">class = Iris&#45;virginica</text>
</g>
<!-- 8&#45;&gt;16 -->
<g id="edge16" class="edge">
<title>8&#45;&gt;16</title>
<path fill="none" stroke="#000000" d="M504.2558,-460.8796C522.4346,-448.7263 542.2546,-435.4759 560.2731,-423.4297"/>
<polygon fill="#000000" stroke="#000000" points="562.5907,-426.0905 568.9588,-417.623 558.7003,-420.2712 562.5907,-426.0905"/>
</g>
<!-- 10 -->
<g id="node11" class="node">
<title>10</title>
<path fill="#bdf6d5" stroke="#000000" d="M512,-306C512,-306 366,-306 366,-306 360,-306 354,-300 354,-294 354,-294 354,-235 354,-235 354,-229 360,-223 366,-223 366,-223 512,-223 512,-223 518,-223 524,-229 524,-235 524,-235 524,-294 524,-294 524,-300 518,-306 512,-306"/>
<text text-anchor="middle" x="439" y="-290.8" font-family="Helvetica,sans-Serif" font-size="14.00" fill="#000000">petal width (cm) &lt;= 1.55</text>
<text text-anchor="middle" x="439" y="-275.8" font-family="Helvetica,sans-Serif" font-size="14.00" fill="#000000">gini = 0.48</text>
<text text-anchor="middle" x="439" y="-260.8" font-family="Helvetica,sans-Serif" font-size="14.00" fill="#000000">samples = 5</text>
<text text-anchor="middle" x="439" y="-245.8" font-family="Helvetica,sans-Serif" font-size="14.00" fill="#000000">value = [0, 3, 2]</text>
<text text-anchor="middle" x="439" y="-230.8" font-family="Helvetica,sans-Serif" font-size="14.00" fill="#000000">class = Iris&#45;versicolor</text>
</g>
<!-- 9&#45;&gt;10 -->
<g id="edge10" class="edge">
<title>9&#45;&gt;10</title>
<path fill="none" stroke="#000000" d="M440.9507,-341.8796C440.7441,-333.6838 440.5249,-324.9891 440.311,-316.5013"/>
<polygon fill="#000000" stroke="#000000" points="443.8047,-316.2067 440.0537,-306.2981 436.807,-316.3831 443.8047,-316.2067"/>
</g>
<!-- 15 -->
<g id="node16" class="node">
<title>15</title>
<path fill="#8139e5" stroke="#000000" d="M673.5,-298.5C673.5,-298.5 554.5,-298.5 554.5,-298.5 548.5,-298.5 542.5,-292.5 542.5,-286.5 542.5,-286.5 542.5,-242.5 542.5,-242.5 542.5,-236.5 548.5,-230.5 554.5,-230.5 554.5,-230.5 673.5,-230.5 673.5,-230.5 679.5,-230.5 685.5,-236.5 685.5,-242.5 685.5,-242.5 685.5,-286.5 685.5,-286.5 685.5,-292.5 679.5,-298.5 673.5,-298.5"/>
<text text-anchor="middle" x="614" y="-283.3" font-family="Helvetica,sans-Serif" font-size="14.00" fill="#000000">gini = 0.0</text>
<text text-anchor="middle" x="614" y="-268.3" font-family="Helvetica,sans-Serif" font-size="14.00" fill="#000000">samples = 2</text>
<text text-anchor="middle" x="614" y="-253.3" font-family="Helvetica,sans-Serif" font-size="14.00" fill="#000000">value = [0, 0, 2]</text>
<text text-anchor="middle" x="614" y="-238.3" font-family="Helvetica,sans-Serif" font-size="14.00" fill="#000000">class = Iris&#45;virginica</text>
</g>
<!-- 9&#45;&gt;15 -->
<g id="edge15" class="edge">
<title>9&#45;&gt;15</title>
<path fill="none" stroke="#000000" d="M502.1573,-341.8796C519.7234,-329.7263 538.8752,-316.4759 556.2864,-304.4297"/>
<polygon fill="#000000" stroke="#000000" points="558.447,-307.191 564.6793,-298.623 554.4643,-301.4344 558.447,-307.191"/>
</g>
<!-- 11 -->
<g id="node12" class="node">
<title>11</title>
<path fill="#c09cf2" stroke="#000000" d="M423,-187C423,-187 273,-187 273,-187 267,-187 261,-181 261,-175 261,-175 261,-116 261,-116 261,-110 267,-104 273,-104 273,-104 423,-104 423,-104 429,-104 435,-110 435,-116 435,-116 435,-175 435,-175 435,-181 429,-187 423,-187"/>
<text text-anchor="middle" x="348" y="-171.8" font-family="Helvetica,sans-Serif" font-size="14.00" fill="#000000">sepal width (cm) &lt;= 2.95</text>
<text text-anchor="middle" x="348" y="-156.8" font-family="Helvetica,sans-Serif" font-size="14.00" fill="#000000">gini = 0.444</text>
<text text-anchor="middle" x="348" y="-141.8" font-family="Helvetica,sans-Serif" font-size="14.00" fill="#000000">samples = 3</text>
<text text-anchor="middle" x="348" y="-126.8" font-family="Helvetica,sans-Serif" font-size="14.00" fill="#000000">value = [0, 1, 2]</text>
<text text-anchor="middle" x="348" y="-111.8" font-family="Helvetica,sans-Serif" font-size="14.00" fill="#000000">class = Iris&#45;virginica</text>
</g>
<!-- 10&#45;&gt;11 -->
<g id="edge11" class="edge">
<title>10&#45;&gt;11</title>
<path fill="none" stroke="#000000" d="M407.1726,-222.8796C400.3543,-213.9633 393.0844,-204.4565 386.0579,-195.268"/>
<polygon fill="#000000" stroke="#000000" points="388.818,-193.1156 379.9632,-187.2981 383.2575,-197.3678 388.818,-193.1156"/>
</g>
<!-- 14 -->
<g id="node15" class="node">
<title>14</title>
<path fill="#39e581" stroke="#000000" d="M593,-179.5C593,-179.5 465,-179.5 465,-179.5 459,-179.5 453,-173.5 453,-167.5 453,-167.5 453,-123.5 453,-123.5 453,-117.5 459,-111.5 465,-111.5 465,-111.5 593,-111.5 593,-111.5 599,-111.5 605,-117.5 605,-123.5 605,-123.5 605,-167.5 605,-167.5 605,-173.5 599,-179.5 593,-179.5"/>
<text text-anchor="middle" x="529" y="-164.3" font-family="Helvetica,sans-Serif" font-size="14.00" fill="#000000">gini = 0.0</text>
<text text-anchor="middle" x="529" y="-149.3" font-family="Helvetica,sans-Serif" font-size="14.00" fill="#000000">samples = 2</text>
<text text-anchor="middle" x="529" y="-134.3" font-family="Helvetica,sans-Serif" font-size="14.00" fill="#000000">value = [0, 2, 0]</text>
<text text-anchor="middle" x="529" y="-119.3" font-family="Helvetica,sans-Serif" font-size="14.00" fill="#000000">class = Iris&#45;versicolor</text>
</g>
<!-- 10&#45;&gt;14 -->
<g id="edge14" class="edge">
<title>10&#45;&gt;14</title>
<path fill="none" stroke="#000000" d="M470.4776,-222.8796C479.0435,-211.5536 488.33,-199.2748 496.9283,-187.9058"/>
<polygon fill="#000000" stroke="#000000" points="499.8069,-189.902 503.0475,-179.8149 494.2238,-185.6795 499.8069,-189.902"/>
</g>
<!-- 12 -->
<g id="node13" class="node">
<title>12</title>
<path fill="#8139e5" stroke="#000000" d="M324.5,-68C324.5,-68 205.5,-68 205.5,-68 199.5,-68 193.5,-62 193.5,-56 193.5,-56 193.5,-12 193.5,-12 193.5,-6 199.5,0 205.5,0 205.5,0 324.5,0 324.5,0 330.5,0 336.5,-6 336.5,-12 336.5,-12 336.5,-56 336.5,-56 336.5,-62 330.5,-68 324.5,-68"/>
<text text-anchor="middle" x="265" y="-52.8" font-family="Helvetica,sans-Serif" font-size="14.00" fill="#000000">gini = 0.0</text>
<text text-anchor="middle" x="265" y="-37.8" font-family="Helvetica,sans-Serif" font-size="14.00" fill="#000000">samples = 2</text>
<text text-anchor="middle" x="265" y="-22.8" font-family="Helvetica,sans-Serif" font-size="14.00" fill="#000000">value = [0, 0, 2]</text>
<text text-anchor="middle" x="265" y="-7.8" font-family="Helvetica,sans-Serif" font-size="14.00" fill="#000000">class = Iris&#45;virginica</text>
</g>
<!-- 11&#45;&gt;12 -->
<g id="edge12" class="edge">
<title>11&#45;&gt;12</title>
<path fill="none" stroke="#000000" d="M317.0939,-103.9815C310.3892,-94.9747 303.2892,-85.4367 296.5597,-76.3965"/>
<polygon fill="#000000" stroke="#000000" points="299.2845,-74.1953 290.5057,-68.2637 293.6694,-78.3752 299.2845,-74.1953"/>
</g>
<!-- 13 -->
<g id="node14" class="node">
<title>13</title>
<path fill="#39e581" stroke="#000000" d="M495,-68C495,-68 367,-68 367,-68 361,-68 355,-62 355,-56 355,-56 355,-12 355,-12 355,-6 361,0 367,0 367,0 495,0 495,0 501,0 507,-6 507,-12 507,-12 507,-56 507,-56 507,-62 501,-68 495,-68"/>
<text text-anchor="middle" x="431" y="-52.8" font-family="Helvetica,sans-Serif" font-size="14.00" fill="#000000">gini = 0.0</text>
<text text-anchor="middle" x="431" y="-37.8" font-family="Helvetica,sans-Serif" font-size="14.00" fill="#000000">samples = 1</text>
<text text-anchor="middle" x="431" y="-22.8" font-family="Helvetica,sans-Serif" font-size="14.00" fill="#000000">value = [0, 1, 0]</text>
<text text-anchor="middle" x="431" y="-7.8" font-family="Helvetica,sans-Serif" font-size="14.00" fill="#000000">class = Iris&#45;versicolor</text>
</g>
<!-- 11&#45;&gt;13 -->
<g id="edge13" class="edge">
<title>11&#45;&gt;13</title>
<path fill="none" stroke="#000000" d="M378.9061,-103.9815C385.6108,-94.9747 392.7108,-85.4367 399.4403,-76.3965"/>
<polygon fill="#000000" stroke="#000000" points="402.3306,-78.3752 405.4943,-68.2637 396.7155,-74.1953 402.3306,-78.3752"/>
</g>
</g>
</svg>
